<svg width="1536" height="220" viewBox="0 0 1536 220" fill="none" xmlns="http://www.w3.org/2000/svg">
<g clip-path="url(#clip0_2309_690)">
<path d="M38.2549 -1259.5C102.92 -1259.5 159.08 -1223.08 187.37 -1169.63C187.442 -1169.5 187.572 -1169.4 187.724 -1169.37C187.875 -1169.35 188.03 -1169.39 188.146 -1169.49C213.925 -1192.39 247.866 -1206.31 285.065 -1206.31C335.883 -1206.31 380.626 -1180.34 406.775 -1140.95C406.858 -1140.83 406.991 -1140.75 407.139 -1140.73C407.286 -1140.72 407.434 -1140.77 407.541 -1140.87C437.86 -1170.1 479.094 -1188.08 524.537 -1188.08C589.792 -1188.08 646.383 -1151.01 674.413 -1096.77C674.491 -1096.62 674.638 -1096.52 674.806 -1096.5C674.973 -1096.48 675.139 -1096.55 675.246 -1096.68C700.24 -1127.22 738.219 -1146.72 780.753 -1146.72C827.492 -1146.72 868.728 -1123.18 893.272 -1087.32C893.356 -1087.2 893.49 -1087.12 893.638 -1087.1C893.785 -1087.09 893.932 -1087.14 894.038 -1087.25C925.29 -1117.96 968.126 -1136.9 1015.4 -1136.9C1077.49 -1136.9 1131.94 -1104.22 1162.51 -1055.13C1162.59 -1055 1162.73 -1054.91 1162.89 -1054.9C1163.05 -1054.89 1163.2 -1054.95 1163.31 -1055.06C1186.44 -1080.5 1219.8 -1096.48 1256.9 -1096.48C1300.68 -1096.48 1339.26 -1074.24 1361.96 -1040.43C1362.04 -1040.31 1362.17 -1040.23 1362.31 -1040.21C1362.45 -1040.19 1362.6 -1040.24 1362.71 -1040.33C1392.41 -1066.52 1431.42 -1082.42 1474.13 -1082.42C1496.55 -1082.42 1517.93 -1078.03 1537.5 -1070.09V30.293C1517.94 38.2397 1496.55 42.623 1474.13 42.623C1431.42 42.623 1392.41 26.7296 1362.71 0.539062C1362.6 0.443636 1362.45 0.399493 1362.31 0.417969C1362.2 0.431839 1362.1 0.479927 1362.03 0.553711L1361.96 0.635742C1339.26 34.4312 1300.68 56.6797 1256.9 56.6797C1219.8 56.6796 1186.44 40.7117 1163.31 15.2656C1163.2 15.1496 1163.05 15.0894 1162.89 15.1035C1162.77 15.1141 1162.66 15.1659 1162.58 15.2471L1162.51 15.3379C1131.94 64.425 1077.49 97.1045 1015.4 97.1045C968.126 97.1044 925.29 78.1508 894.038 47.4492C893.932 47.3453 893.785 47.2932 893.638 47.3076C893.49 47.322 893.356 47.4011 893.272 47.5234C868.728 83.3863 827.492 106.92 780.753 106.92C738.219 106.92 700.24 87.4221 675.246 56.8838C675.139 56.7532 674.974 56.6855 674.806 56.7031C674.659 56.7185 674.528 56.7972 674.445 56.917L674.413 56.9717C646.393 111.213 589.792 148.288 524.537 148.288C479.094 148.288 437.86 130.305 407.541 101.075C407.434 100.972 407.286 100.921 407.139 100.938C407.028 100.95 406.925 100.998 406.846 101.074L406.775 101.159C380.626 140.548 335.883 166.516 285.065 166.516C247.866 166.516 213.925 152.597 188.146 129.695C188.03 129.593 187.875 129.55 187.724 129.577C187.61 129.598 187.509 129.657 187.435 129.742L187.37 129.836C159.09 183.277 102.93 219.693 38.2549 219.693C24.5563 219.693 11.2502 218.045 -1.49902 214.966V-1254.77C11.2502 -1257.85 24.5564 -1259.5 38.2549 -1259.5Z" fill="#F3F3F3" stroke="#78471C" stroke-width="1.0026" stroke-linejoin="round"/>
</g>
<defs>
<clipPath id="clip0_2309_690">
<rect width="1536" height="220" fill="white"/>
</clipPath>
</defs>
</svg>
