<svg width="390" height="1189" viewBox="0 0 390 1189" fill="none" xmlns="http://www.w3.org/2000/svg">
<path d="M0.5 0.521484C20.0487 1.37378 37.1409 11.6889 47.3086 27.0049L47.6406 27.5039L48.0723 27.0879C60.3959 15.2082 77.1548 7.90039 95.623 7.90039C122.145 7.90041 145.147 22.9683 156.538 45.0127L156.887 45.6885L157.369 45.0996C167.515 32.6997 182.935 24.7852 200.206 24.7852C219.182 24.7852 235.924 34.3397 245.891 48.9014L246.228 49.3945L246.653 48.9756C259.357 36.4947 276.771 28.793 295.985 28.793C321.222 28.7931 343.353 42.0758 355.78 62.0303L355.928 62.2656H356.427L356.576 62.1025C364.9 52.9466 376.489 46.8192 389.501 45.5459V1143.18C376.489 1141.91 364.9 1135.78 356.576 1126.63L356.131 1126.14L355.781 1126.7C343.354 1146.65 321.222 1159.94 295.986 1159.94C276.772 1159.94 259.358 1152.23 246.654 1139.75L246.229 1139.33L245.892 1139.83C235.926 1154.39 219.183 1163.94 200.207 1163.94C182.936 1163.94 167.516 1156.03 157.37 1143.63L156.888 1143.04L156.539 1143.72C145.147 1165.76 122.146 1180.83 95.624 1180.83C77.1547 1180.83 60.3969 1173.52 48.0732 1161.64L47.6416 1161.22L47.3096 1161.72C37.1409 1177.04 20.0487 1187.35 0.5 1188.21V0.521484Z" fill="#F3F3F3" stroke="#78471C"/>
</svg>
